<svg width="16" height="17" viewBox="0 0 16 17" fill="none" xmlns="http://www.w3.org/2000/svg">
<path d="M6.3833 13.6565C7.76953 13.6565 9.04785 13.2083 10.0938 12.4612L14.0283 16.3958C14.2109 16.5784 14.4517 16.6697 14.709 16.6697C15.2485 16.6697 15.6304 16.2546 15.6304 15.7234C15.6304 15.4744 15.5474 15.2336 15.3647 15.0593L11.4551 11.1414C12.2769 10.0623 12.7666 8.72583 12.7666 7.27319C12.7666 3.76196 9.89453 0.889893 6.3833 0.889893C2.88037 0.889893 0 3.75366 0 7.27319C0 10.7844 2.87207 13.6565 6.3833 13.6565ZM6.3833 12.2786C3.64404 12.2786 1.37793 10.0125 1.37793 7.27319C1.37793 4.53394 3.64404 2.26782 6.3833 2.26782C9.12256 2.26782 11.3887 4.53394 11.3887 7.27319C11.3887 10.0125 9.12256 12.2786 6.3833 12.2786Z" fill="white"/>
</svg>
