<svg width="140" height="189" viewBox="0 0 140 189" fill="none" xmlns="http://www.w3.org/2000/svg">
<path d="M113 0H27C24.2386 0 22 2.23858 22 5V110C22 112.761 24.2386 115 27 115H113C115.761 115 118 112.761 118 110V5C118 2.23858 115.761 0 113 0Z" fill="#232938"/>
<rect width="40" height="58.5994" transform="translate(35.0063 12)" fill="#232938"/>
<path d="M58.2063 12H37.4063C36.0809 12 35.0063 13.0745 35.0063 14.4C35.0063 15.7255 36.0809 16.8 37.4063 16.8H58.2063C59.5318 16.8 60.6063 15.7255 60.6063 14.4C60.6063 13.0745 59.5318 12 58.2063 12Z" fill="#00B8EE" fill-opacity="0.5"/>
<path d="M72.6063 22.4H37.4063C36.0809 22.4 35.0063 23.4745 35.0063 24.8C35.0063 26.1255 36.0809 27.2 37.4063 27.2H72.6063C73.9318 27.2 75.0063 26.1255 75.0063 24.8C75.0063 23.4745 73.9318 22.4 72.6063 22.4Z" fill="#00B8EE" fill-opacity="0.2"/>
<path d="M58.2063 33.6H37.4063C36.0809 33.6 35.0063 34.6745 35.0063 36C35.0063 37.3255 36.0809 38.4 37.4063 38.4H58.2063C59.5318 38.4 60.6063 37.3255 60.6063 36C60.6063 34.6745 59.5318 33.6 58.2063 33.6Z" fill="#00B8EE" fill-opacity="0.5"/>
<path d="M72.6063 44H37.4063C36.0809 44 35.0063 45.0745 35.0063 46.4C35.0063 47.7255 36.0809 48.8 37.4063 48.8H72.6063C73.9318 48.8 75.0063 47.7255 75.0063 46.4C75.0063 45.0745 73.9318 44 72.6063 44Z" fill="#00B8EE" fill-opacity="0.2"/>
<path d="M55.0928 55.2H37.0843C35.9367 55.2 35.0063 56.2745 35.0063 57.6C35.0063 58.9254 35.9367 60 37.0843 60H55.0928C56.2404 60 57.1708 58.9254 57.1708 57.6C57.1708 56.2745 56.2404 55.2 55.0928 55.2Z" fill="#00B8EE" fill-opacity="0.5"/>
<path d="M72.6168 65.5994H37.5693C36.2495 65.5994 35.1797 66.7187 35.1797 68.0994C35.1797 69.4801 36.2495 70.5994 37.5693 70.5994H72.6168C73.9365 70.5994 75.0064 69.4801 75.0064 68.0994C75.0064 66.7187 73.9365 65.5994 72.6168 65.5994Z" fill="#00B8EE" fill-opacity="0.2"/>
<path d="M59.9741 142.09C59.7581 142.09 59.6201 141.982 59.5601 141.766C59.5241 141.61 59.4701 141.13 59.3981 140.326C58.4501 140.05 57.6221 139.912 56.9141 139.912C56.2781 139.912 55.7141 140.014 55.2221 140.218C54.7061 140.434 54.2681 140.74 53.9081 141.136C53.5361 141.544 53.2481 142.024 53.0441 142.576C52.8281 143.152 52.7201 143.794 52.7201 144.502C52.7201 145.222 52.8281 145.87 53.0441 146.446C53.2721 147.046 53.5481 147.526 53.8721 147.886C54.2201 148.27 54.6401 148.57 55.1321 148.786C55.5881 148.99 56.1041 149.092 56.6801 149.092C57.0161 149.092 57.3161 149.074 57.5801 149.038C57.8561 149.002 58.1021 148.948 58.3181 148.876C58.5221 148.804 58.7321 148.702 58.9481 148.57C59.1281 148.462 59.3261 148.306 59.5421 148.102C59.5781 148.066 59.6441 148.024 59.7401 147.976C59.7881 147.952 59.8601 147.94 59.9561 147.94C60.1001 147.94 60.2141 147.988 60.2981 148.084L61.2521 149.128C60.7241 149.788 60.0761 150.286 59.3081 150.622C58.5161 150.97 57.5861 151.144 56.5181 151.144C55.5941 151.144 54.7301 150.976 53.9261 150.64C53.1341 150.304 52.4741 149.848 51.9461 149.272C51.3821 148.66 50.9621 147.958 50.6861 147.166C50.3981 146.35 50.2541 145.462 50.2541 144.502C50.2541 143.506 50.4161 142.606 50.7401 141.802C51.0641 140.998 51.5201 140.302 52.1081 139.714C52.7201 139.102 53.4221 138.64 54.2141 138.328C55.0301 138.004 55.9361 137.842 56.9321 137.842C58.0361 137.842 59.3981 138.154 61.0181 138.778V142.09H59.9741ZM72.449 149.38C72.749 149.452 72.899 149.638 72.899 149.938V151H69.317V145.132C69.317 144.556 69.185 144.118 68.921 143.818C68.669 143.506 68.279 143.35 67.751 143.35C67.379 143.35 67.019 143.44 66.671 143.62C66.311 143.812 65.993 144.046 65.717 144.322V149.218L66.257 149.308C66.317 149.32 66.365 149.332 66.401 149.344C66.449 149.356 66.491 149.362 66.527 149.362L66.635 149.38C66.935 149.452 67.085 149.638 67.085 149.938V151H62.135V149.938C62.135 149.638 62.285 149.452 62.585 149.38L62.693 149.362C62.729 149.362 62.765 149.356 62.801 149.344C62.849 149.332 62.903 149.32 62.963 149.308L63.503 149.218V139.408L62.963 139.318C62.903 139.306 62.849 139.294 62.801 139.282C62.765 139.27 62.729 139.264 62.693 139.264L62.585 139.246C62.285 139.174 62.135 138.988 62.135 138.688V137.626H65.717V142.774C66.065 142.45 66.461 142.174 66.905 141.946C67.337 141.73 67.847 141.622 68.435 141.622C68.915 141.622 69.359 141.706 69.767 141.874C70.115 142.018 70.439 142.258 70.739 142.594C70.991 142.894 71.189 143.266 71.333 143.71C71.477 144.202 71.549 144.67 71.549 145.114V149.218L72.071 149.308L72.341 149.362L72.449 149.38ZM82.1528 149.362C82.4528 149.434 82.6028 149.62 82.6028 149.92V150.982H80.4788C80.2508 150.982 80.0828 150.952 79.9748 150.892C79.8548 150.844 79.7648 150.712 79.7048 150.496L79.5068 149.848C79.2668 150.076 79.0388 150.262 78.8228 150.406C78.6548 150.526 78.4208 150.658 78.1208 150.802C77.9048 150.898 77.6528 150.976 77.3648 151.036C77.0648 151.096 76.7648 151.126 76.4648 151.126C76.0688 151.126 75.7088 151.072 75.3848 150.964C75.0368 150.844 74.7548 150.688 74.5388 150.496C74.2868 150.268 74.1008 150.004 73.9808 149.704C73.8488 149.38 73.7828 149.02 73.7828 148.624C73.7828 148.264 73.8728 147.916 74.0528 147.58C74.2328 147.232 74.5388 146.926 74.9708 146.662C75.4268 146.374 75.9908 146.146 76.6628 145.978C77.3708 145.798 78.2528 145.708 79.3088 145.708V145.168C79.3088 144.568 79.1768 144.106 78.9128 143.782C78.6608 143.482 78.2828 143.332 77.7788 143.332C77.3948 143.332 77.0948 143.374 76.8788 143.458C76.6028 143.566 76.3928 143.662 76.2488 143.746L75.7628 144.016C75.6308 144.1 75.4688 144.142 75.2768 144.142C75.1208 144.142 74.9888 144.106 74.8808 144.034C74.8088 143.986 74.7248 143.89 74.6288 143.746L74.2148 143.044C75.2948 142.06 76.5728 141.568 78.0488 141.568C78.5888 141.568 79.0748 141.658 79.5068 141.838C79.9268 142.018 80.2808 142.264 80.5688 142.576C80.8928 142.948 81.1208 143.326 81.2528 143.71C81.3968 144.142 81.4688 144.622 81.4688 145.15V149.236L81.9548 149.326L82.1528 149.362ZM79.3088 147.058C78.6368 147.058 78.0968 147.1 77.6888 147.184C77.2448 147.28 76.8908 147.388 76.6268 147.508C76.3628 147.628 76.1768 147.772 76.0688 147.94C75.9608 148.096 75.9068 148.282 75.9068 148.498C75.9068 148.906 76.0208 149.188 76.2488 149.344C76.4888 149.512 76.7888 149.596 77.1488 149.596C77.3768 149.596 77.5868 149.578 77.7788 149.542C77.9828 149.506 78.1688 149.44 78.3368 149.344C78.5528 149.224 78.7148 149.122 78.8228 149.038C78.9908 148.906 79.1528 148.762 79.3088 148.606V147.058ZM87.3695 151.144C86.5655 151.144 85.9475 150.916 85.5155 150.46C85.0835 150.004 84.8675 149.38 84.8675 148.588V143.44H83.9315C83.8355 143.44 83.7335 143.398 83.6255 143.314C83.5295 143.242 83.4815 143.128 83.4815 142.972V142.072L84.9755 141.838L85.4435 139.318C85.4555 139.21 85.5095 139.12 85.6055 139.048C85.7015 138.976 85.8155 138.94 85.9475 138.94H87.0995V141.856H89.5295V143.44H87.0995V148.444C87.0995 148.72 87.1715 148.942 87.3155 149.11C87.4595 149.266 87.6515 149.344 87.8915 149.344C88.0595 149.344 88.1735 149.332 88.2335 149.308L88.4675 149.2L88.6655 149.092C88.7015 149.068 88.7495 149.056 88.8095 149.056C88.9055 149.056 88.9655 149.068 88.9895 149.092L89.1155 149.236L89.7815 150.316C89.4695 150.568 89.0975 150.772 88.6655 150.928C88.2575 151.072 87.8255 151.144 87.3695 151.144Z" fill="white"/>
<path d="M1.57438 184V172.8H3.59038L8.53438 182.112V172.8H9.97438V184H7.99038L3.01438 174.752V184H1.57438ZM15.5596 184.192C14.8663 184.192 14.237 184.016 13.6716 183.664C13.1063 183.312 12.653 182.816 12.3116 182.176C11.981 181.525 11.8156 180.763 11.8156 179.888C11.8156 179.056 11.981 178.309 12.3116 177.648C12.653 176.987 13.117 176.464 13.7036 176.08C14.301 175.685 14.9836 175.488 15.7516 175.488C16.2316 175.488 16.6636 175.573 17.0476 175.744C17.4423 175.904 17.7836 176.107 18.0716 176.352V175.68H19.3836V181.984C19.3836 182.389 19.4796 182.656 19.6716 182.784C19.8743 182.901 20.093 182.96 20.3276 182.96L20.0236 184.08C18.9996 184.08 18.381 183.664 18.1676 182.832C17.9223 183.173 17.5863 183.488 17.1596 183.776C16.7436 184.053 16.2103 184.192 15.5596 184.192ZM15.8796 182.912C16.285 182.912 16.669 182.816 17.0316 182.624C17.3943 182.421 17.6983 182.171 17.9436 181.872V177.408C17.6556 177.205 17.3356 177.045 16.9836 176.928C16.6423 176.8 16.2796 176.736 15.8956 176.736C15.3836 176.736 14.9303 176.869 14.5356 177.136C14.1516 177.392 13.8476 177.755 13.6236 178.224C13.3996 178.683 13.2876 179.221 13.2876 179.84C13.2876 180.437 13.3996 180.971 13.6236 181.44C13.8476 181.899 14.157 182.261 14.5516 182.528C14.9463 182.784 15.389 182.912 15.8796 182.912ZM14.0076 174.272L13.4476 173.28C13.6396 173.067 13.885 172.875 14.1836 172.704C14.4823 172.533 14.7916 172.448 15.1116 172.448C15.3783 172.448 15.6076 172.496 15.7996 172.592C15.9916 172.677 16.173 172.768 16.3436 172.864C16.525 172.949 16.7276 172.992 16.9516 172.992C17.1863 172.992 17.3943 172.944 17.5756 172.848C17.757 172.741 17.917 172.624 18.0556 172.496L18.6156 173.504C18.4236 173.685 18.1996 173.856 17.9436 174.016C17.6983 174.165 17.4103 174.24 17.0796 174.24C16.8023 174.24 16.5676 174.197 16.3756 174.112C16.1836 174.016 15.997 173.925 15.8156 173.84C15.6343 173.744 15.421 173.696 15.1756 173.696C14.941 173.696 14.7276 173.755 14.5356 173.872C14.3436 173.989 14.1676 174.123 14.0076 174.272ZM25.2784 184.192C24.489 184.192 23.7797 184.011 23.1504 183.648C22.521 183.275 22.025 182.763 21.6624 182.112C21.3104 181.451 21.1344 180.693 21.1344 179.84C21.1344 178.944 21.3157 178.171 21.6784 177.52C22.041 176.869 22.537 176.368 23.1664 176.016C23.7957 175.664 24.4997 175.488 25.2784 175.488C26.057 175.488 26.7557 175.664 27.3744 176.016C28.0037 176.368 28.4997 176.869 28.8624 177.52C29.2357 178.16 29.4224 178.923 29.4224 179.808C29.4224 180.693 29.241 181.467 28.8784 182.128C28.5157 182.779 28.0197 183.285 27.3904 183.648C26.7717 184.011 26.0677 184.192 25.2784 184.192ZM25.2784 182.912C26.121 182.912 26.777 182.629 27.2464 182.064C27.7157 181.488 27.9504 180.747 27.9504 179.84C27.9504 179.285 27.833 178.779 27.5984 178.32C27.3637 177.851 27.0437 177.477 26.6384 177.2C26.2437 176.912 25.7904 176.768 25.2784 176.768C24.4357 176.768 23.7797 177.045 23.3104 177.6C22.841 178.155 22.6064 178.891 22.6064 179.808C22.6064 180.363 22.7237 180.88 22.9584 181.36C23.193 181.829 23.5077 182.208 23.9024 182.496C24.3077 182.773 24.7664 182.912 25.2784 182.912ZM35.4938 184V172.16H36.9338V177.008C37.2324 176.571 37.6111 176.208 38.0698 175.92C38.5284 175.632 39.0671 175.488 39.6858 175.488C40.6244 175.488 41.3231 175.771 41.7818 176.336C42.2511 176.901 42.4858 177.648 42.4858 178.576V184H41.0458V178.736C41.0458 178.139 40.9071 177.659 40.6298 177.296C40.3524 176.933 39.9631 176.752 39.4618 176.752C38.9711 176.752 38.5018 176.928 38.0538 177.28C37.6164 177.621 37.2431 178.027 36.9338 178.496V184H35.4938ZM47.8265 184.192C47.1332 184.192 46.5038 184.016 45.9385 183.664C45.3732 183.312 44.9198 182.816 44.5785 182.176C44.2478 181.525 44.0825 180.763 44.0825 179.888C44.0825 179.056 44.2478 178.309 44.5785 177.648C44.9198 176.987 45.3838 176.464 45.9705 176.08C46.5678 175.685 47.2505 175.488 48.0185 175.488C48.4985 175.488 48.9305 175.573 49.3145 175.744C49.7092 175.904 50.0505 176.107 50.3385 176.352V175.68H51.6505V181.984C51.6505 182.389 51.7465 182.656 51.9385 182.784C52.1412 182.901 52.3598 182.96 52.5945 182.96L52.2905 184.08C51.2665 184.08 50.6478 183.664 50.4345 182.832C50.1892 183.173 49.8532 183.488 49.4265 183.776C49.0105 184.053 48.4772 184.192 47.8265 184.192ZM48.1465 182.912C48.5518 182.912 48.9358 182.816 49.2985 182.624C49.6612 182.421 49.9652 182.171 50.2105 181.872V177.408C49.9225 177.205 49.6025 177.045 49.2505 176.928C48.9092 176.8 48.5465 176.736 48.1625 176.736C47.6505 176.736 47.1972 176.869 46.8025 177.136C46.4185 177.392 46.1145 177.755 45.8905 178.224C45.6665 178.683 45.5545 179.221 45.5545 179.84C45.5545 180.437 45.6665 180.971 45.8905 181.44C46.1145 181.899 46.4238 182.261 46.8185 182.528C47.2132 182.784 47.6558 182.912 48.1465 182.912ZM58.6744 184V175.68H60.0664V177.072C60.365 176.624 60.7437 176.251 61.2024 175.952C61.661 175.643 62.1837 175.488 62.7704 175.488C63.4317 175.488 63.9704 175.648 64.3864 175.968C64.813 176.288 65.1117 176.715 65.2824 177.248C65.613 176.757 66.0024 176.341 66.4504 176C66.909 175.659 67.4744 175.488 68.1464 175.488C69.053 175.488 69.725 175.776 70.1624 176.352C70.6104 176.917 70.8344 177.659 70.8344 178.576V184H69.3944V178.688C69.3944 178.112 69.261 177.648 68.9944 177.296C68.7277 176.933 68.3597 176.752 67.8904 176.752C67.4104 176.752 66.9624 176.933 66.5464 177.296C66.141 177.648 65.7837 178.064 65.4744 178.544V184H64.0344V178.688C64.0344 178.112 63.901 177.648 63.6344 177.296C63.3677 176.933 62.9997 176.752 62.5304 176.752C62.061 176.752 61.6184 176.928 61.2024 177.28C60.7864 177.621 60.4237 178.027 60.1144 178.496V184H58.6744ZM76.323 184.192C75.1283 184.192 74.179 183.813 73.475 183.056C72.7817 182.288 72.435 181.216 72.435 179.84C72.435 179.008 72.5897 178.267 72.899 177.616C73.219 176.955 73.6617 176.437 74.227 176.064C74.7923 175.68 75.4483 175.488 76.195 175.488C76.995 175.488 77.6563 175.664 78.179 176.016C78.7123 176.357 79.1123 176.821 79.379 177.408C79.6457 177.995 79.779 178.64 79.779 179.344C79.779 179.717 79.763 180.08 79.731 180.432H73.907C74.003 181.211 74.275 181.819 74.723 182.256C75.171 182.693 75.763 182.912 76.499 182.912C76.979 182.912 77.411 182.864 77.795 182.768C78.179 182.661 78.547 182.528 78.899 182.368L79.235 183.6C78.851 183.771 78.419 183.909 77.939 184.016C77.459 184.133 76.9203 184.192 76.323 184.192ZM73.891 179.264H78.451C78.451 178.453 78.2483 177.829 77.843 177.392C77.4377 176.955 76.8777 176.736 76.163 176.736C75.5443 176.736 75.0323 176.955 74.627 177.392C74.2217 177.819 73.9763 178.443 73.891 179.264ZM81.3781 184V175.68H82.7701V177.072C83.0688 176.624 83.4475 176.251 83.9061 175.952C84.3755 175.643 84.9301 175.488 85.5701 175.488C86.5088 175.488 87.2075 175.771 87.6661 176.336C88.1355 176.901 88.3701 177.648 88.3701 178.576V184H86.9301V178.736C86.9301 178.139 86.7861 177.659 86.4981 177.296C86.2208 176.933 85.8315 176.752 85.3301 176.752C84.8395 176.752 84.3755 176.928 83.9381 177.28C83.5008 177.621 83.1275 178.027 82.8181 178.496V184H81.3781ZM92.7669 184.192C92.1375 184.192 91.5669 184.112 91.0549 183.952C90.5535 183.792 90.1375 183.584 89.8069 183.328L90.4149 182.128C90.6922 182.363 91.0389 182.56 91.4549 182.72C91.8815 182.869 92.3349 182.944 92.8149 182.944C93.4122 182.944 93.8602 182.848 94.1589 182.656C94.4682 182.453 94.6229 182.197 94.6229 181.888C94.6229 181.664 94.5642 181.467 94.4469 181.296C94.3402 181.125 94.1375 180.96 93.8389 180.8C93.5402 180.629 93.1082 180.448 92.5429 180.256C91.7642 179.989 91.1775 179.675 90.7829 179.312C90.3989 178.939 90.2069 178.427 90.2069 177.776C90.2069 177.136 90.4842 176.597 91.0389 176.16C91.6042 175.712 92.3829 175.488 93.3749 175.488C93.9082 175.488 94.3829 175.547 94.7989 175.664C95.2149 175.771 95.5882 175.909 95.9189 176.08L95.5189 177.264C95.2309 177.093 94.9002 176.955 94.5269 176.848C94.1642 176.741 93.7589 176.688 93.3109 176.688C92.7562 176.688 92.3349 176.8 92.0469 177.024C91.7589 177.248 91.6149 177.493 91.6149 177.76C91.6149 178.016 91.7269 178.235 91.9509 178.416C92.1749 178.597 92.6122 178.795 93.2629 179.008C94.3189 179.36 95.0549 179.749 95.4709 180.176C95.8869 180.603 96.0949 181.136 96.0949 181.776C96.0949 182.523 95.7909 183.115 95.1829 183.552C94.5855 183.979 93.7802 184.192 92.7669 184.192ZM100.875 184.192C100.182 184.192 99.5526 184.016 98.9873 183.664C98.4219 183.312 97.9686 182.816 97.6273 182.176C97.2966 181.525 97.1313 180.763 97.1313 179.888C97.1313 179.056 97.2966 178.309 97.6273 177.648C97.9686 176.987 98.4326 176.464 99.0193 176.08C99.6166 175.685 100.299 175.488 101.067 175.488C101.547 175.488 101.979 175.573 102.363 175.744C102.758 175.904 103.099 176.107 103.387 176.352V175.68H104.699V181.984C104.699 182.389 104.795 182.656 104.987 182.784C105.19 182.901 105.409 182.96 105.643 182.96L105.339 184.08C104.315 184.08 103.697 183.664 103.483 182.832C103.238 183.173 102.902 183.488 102.475 183.776C102.059 184.053 101.526 184.192 100.875 184.192ZM101.195 182.912C101.601 182.912 101.985 182.816 102.347 182.624C102.71 182.421 103.014 182.171 103.259 181.872V177.408C102.971 177.205 102.651 177.045 102.299 176.928C101.958 176.8 101.595 176.736 101.211 176.736C100.699 176.736 100.246 176.869 99.8513 177.136C99.4673 177.392 99.1633 177.755 98.9393 178.224C98.7153 178.683 98.6033 179.221 98.6033 179.84C98.6033 180.437 98.7153 180.971 98.9393 181.44C99.1633 181.899 99.4726 182.261 99.8673 182.528C100.262 182.784 100.705 182.912 101.195 182.912ZM110.146 187.712C109.655 187.712 109.175 187.653 108.706 187.536C108.247 187.419 107.837 187.243 107.474 187.008L108.002 185.76C108.258 185.963 108.557 186.128 108.898 186.256C109.239 186.395 109.655 186.464 110.146 186.464C110.903 186.464 111.495 186.261 111.922 185.856C112.359 185.461 112.578 184.827 112.578 183.952V182.928C112.365 183.184 112.055 183.429 111.65 183.664C111.255 183.888 110.781 184 110.226 184C109.597 184 108.999 183.84 108.434 183.52C107.869 183.189 107.41 182.709 107.058 182.08C106.706 181.451 106.53 180.693 106.53 179.808C106.53 178.976 106.701 178.235 107.042 177.584C107.394 176.933 107.863 176.421 108.45 176.048C109.037 175.675 109.682 175.488 110.386 175.488C110.855 175.488 111.282 175.568 111.666 175.728C112.05 175.888 112.381 176.085 112.658 176.32V175.68H113.97V183.808C113.97 184.725 113.81 185.472 113.49 186.048C113.17 186.624 112.722 187.045 112.146 187.312C111.581 187.579 110.914 187.712 110.146 187.712ZM110.546 182.72C110.973 182.72 111.357 182.624 111.698 182.432C112.039 182.24 112.317 182.016 112.53 181.76V177.408C112.295 177.237 112.013 177.083 111.682 176.944C111.351 176.805 110.967 176.736 110.53 176.736C110.093 176.736 109.682 176.853 109.298 177.088C108.914 177.323 108.599 177.664 108.354 178.112C108.119 178.549 108.002 179.088 108.002 179.728C108.002 180.336 108.119 180.864 108.354 181.312C108.599 181.76 108.914 182.107 109.298 182.352C109.682 182.597 110.098 182.72 110.546 182.72ZM119.457 184.192C118.263 184.192 117.313 183.813 116.609 183.056C115.916 182.288 115.569 181.216 115.569 179.84C115.569 179.008 115.724 178.267 116.033 177.616C116.353 176.955 116.796 176.437 117.361 176.064C117.927 175.68 118.583 175.488 119.329 175.488C120.129 175.488 120.791 175.664 121.313 176.016C121.847 176.357 122.247 176.821 122.513 177.408C122.78 177.995 122.913 178.64 122.913 179.344C122.913 179.717 122.897 180.08 122.865 180.432H117.041C117.137 181.211 117.409 181.819 117.857 182.256C118.305 182.693 118.897 182.912 119.633 182.912C120.113 182.912 120.545 182.864 120.929 182.768C121.313 182.661 121.681 182.528 122.033 182.368L122.369 183.6C121.985 183.771 121.553 183.909 121.073 184.016C120.593 184.133 120.055 184.192 119.457 184.192ZM117.025 179.264H121.585C121.585 178.453 121.383 177.829 120.977 177.392C120.572 176.955 120.012 176.736 119.297 176.736C118.679 176.736 118.167 176.955 117.761 177.392C117.356 177.819 117.111 178.443 117.025 179.264ZM124.512 184V175.68H125.904V177.072C126.203 176.624 126.582 176.251 127.04 175.952C127.51 175.643 128.064 175.488 128.704 175.488C129.643 175.488 130.342 175.771 130.8 176.336C131.27 176.901 131.504 177.648 131.504 178.576V184H130.064V178.736C130.064 178.139 129.92 177.659 129.632 177.296C129.355 176.933 128.966 176.752 128.464 176.752C127.974 176.752 127.51 176.928 127.072 177.28C126.635 177.621 126.262 178.027 125.952 178.496V184H124.512ZM135.901 184.192C135.272 184.192 134.701 184.112 134.189 183.952C133.688 183.792 133.272 183.584 132.941 183.328L133.549 182.128C133.827 182.363 134.173 182.56 134.589 182.72C135.016 182.869 135.469 182.944 135.949 182.944C136.547 182.944 136.995 182.848 137.293 182.656C137.603 182.453 137.757 182.197 137.757 181.888C137.757 181.664 137.699 181.467 137.581 181.296C137.475 181.125 137.272 180.96 136.973 180.8C136.675 180.629 136.243 180.448 135.677 180.256C134.899 179.989 134.312 179.675 133.917 179.312C133.533 178.939 133.341 178.427 133.341 177.776C133.341 177.136 133.619 176.597 134.173 176.16C134.739 175.712 135.517 175.488 136.509 175.488C137.043 175.488 137.517 175.547 137.933 175.664C138.349 175.771 138.723 175.909 139.053 176.08L138.653 177.264C138.365 177.093 138.035 176.955 137.661 176.848C137.299 176.741 136.893 176.688 136.445 176.688C135.891 176.688 135.469 176.8 135.181 177.024C134.893 177.248 134.749 177.493 134.749 177.76C134.749 178.016 134.861 178.235 135.085 178.416C135.309 178.597 135.747 178.795 136.397 179.008C137.453 179.36 138.189 179.749 138.605 180.176C139.021 180.603 139.229 181.136 139.229 181.776C139.229 182.523 138.925 183.115 138.317 183.552C137.72 183.979 136.915 184.192 135.901 184.192Z" fill="#999999"/>
</svg>
