<svg width="97" height="115" viewBox="0 0 97 115" fill="none" xmlns="http://www.w3.org/2000/svg">
<path d="M91.5 0H5.5C2.73858 0 0.5 2.23858 0.5 5V110C0.5 112.761 2.73858 115 5.5 115H91.5C94.2614 115 96.5 112.761 96.5 110V5C96.5 2.23858 94.2614 0 91.5 0Z" fill="#232938"/>
<path d="M36.7063 12H15.9063C14.5809 12 13.5063 13.0745 13.5063 14.4C13.5063 15.7255 14.5809 16.8 15.9063 16.8H36.7063C38.0318 16.8 39.1063 15.7255 39.1063 14.4C39.1063 13.0745 38.0318 12 36.7063 12Z" fill="#00B8EE" fill-opacity="0.5"/>
<path d="M51.1063 22.4H15.9063C14.5809 22.4 13.5063 23.4745 13.5063 24.8C13.5063 26.1255 14.5809 27.2 15.9063 27.2H51.1063C52.4318 27.2 53.5063 26.1255 53.5063 24.8C53.5063 23.4745 52.4318 22.4 51.1063 22.4Z" fill="#00B8EE" fill-opacity="0.2"/>
<path d="M36.7063 33.6H15.9063C14.5809 33.6 13.5063 34.6745 13.5063 36C13.5063 37.3255 14.5809 38.4 15.9063 38.4H36.7063C38.0318 38.4 39.1063 37.3255 39.1063 36C39.1063 34.6745 38.0318 33.6 36.7063 33.6Z" fill="#00B8EE" fill-opacity="0.5"/>
<path d="M51.1064 44H15.9064C14.5809 44 13.5064 45.0745 13.5064 46.4C13.5064 47.7255 14.5809 48.8 15.9064 48.8H51.1064C52.4318 48.8 53.5064 47.7255 53.5064 46.4C53.5064 45.0745 52.4318 44 51.1064 44Z" fill="#00B8EE" fill-opacity="0.2"/>
<path d="M33.5928 55.2H15.5843C14.4367 55.2 13.5063 56.2745 13.5063 57.6C13.5063 58.9255 14.4367 60 15.5843 60H33.5928C34.7404 60 35.6708 58.9255 35.6708 57.6C35.6708 56.2745 34.7404 55.2 33.5928 55.2Z" fill="#00B8EE" fill-opacity="0.5"/>
<path d="M51.1167 65.5994H16.0693C14.7495 65.5994 13.6797 66.7187 13.6797 68.0994C13.6797 69.4801 14.7495 70.5994 16.0693 70.5994H51.1167C52.4365 70.5994 53.5063 69.4801 53.5063 68.0994C53.5063 66.7187 52.4365 65.5994 51.1167 65.5994Z" fill="#00B8EE" fill-opacity="0.2"/>
<path d="M70.3575 85C73.1189 85 75.3575 82.7614 75.3575 80C75.3575 77.2386 73.1189 75 70.3575 75C67.5961 75 65.3575 77.2386 65.3575 80C65.3575 82.7614 67.5961 85 70.3575 85Z" fill="#00B8EE"/>
<path d="M74.2645 101.37C73.4645 101.37 72.7175 101.37 72.0375 101.327C71.1999 101.27 70.3942 100.984 69.7089 100.499C69.0237 100.014 68.4854 99.3491 68.1535 98.578L63.9345 90.24C63.6251 89.8797 63.4706 89.4117 63.5046 88.938C63.5387 88.4643 63.7587 88.0233 64.1165 87.711C64.4097 87.4754 64.7754 87.3485 65.1515 87.352C65.4284 87.3601 65.7003 87.4281 65.9483 87.5513C66.1964 87.6746 66.4148 87.8502 66.5885 88.066L68.5045 90.681L68.5335 90.715V80.78C68.5335 80.2871 68.7293 79.8144 69.0778 79.4659C69.4264 79.1173 69.8991 78.9215 70.392 78.9215C70.8849 78.9215 71.3576 79.1173 71.7062 79.4659C72.0547 79.8144 72.2505 80.2871 72.2505 80.78V87.28C72.2289 87.0408 72.2574 86.7998 72.3341 86.5722C72.4109 86.3446 72.5341 86.1355 72.6961 85.9582C72.8582 85.781 73.0553 85.6394 73.2751 85.5425C73.4948 85.4456 73.7323 85.3956 73.9725 85.3956C74.2127 85.3956 74.4502 85.4456 74.6699 85.5425C74.8897 85.6394 75.0869 85.781 75.2489 85.9582C75.4109 86.1355 75.5342 86.3446 75.6109 86.5722C75.6876 86.7998 75.7161 87.0408 75.6945 87.28V88.635C75.6729 88.3958 75.7014 88.1548 75.7781 87.9272C75.8549 87.6996 75.9781 87.4905 76.1401 87.3132C76.3022 87.136 76.4993 86.9944 76.7191 86.8975C76.9388 86.8006 77.1763 86.7506 77.4165 86.7506C77.6567 86.7506 77.8942 86.8006 78.1139 86.8975C78.3337 86.9944 78.5309 87.136 78.6929 87.3132C78.8549 87.4905 78.9782 87.6996 79.0549 87.9272C79.1316 88.1548 79.1601 88.3958 79.1385 88.635V89.679C79.1169 89.4398 79.1454 89.1988 79.2221 88.9712C79.2989 88.7436 79.4221 88.5345 79.5841 88.3572C79.7461 88.18 79.9433 88.0384 80.1631 87.9415C80.3828 87.8446 80.6203 87.7946 80.8605 87.7946C81.1007 87.7946 81.3382 87.8446 81.5579 87.9415C81.7777 88.0384 81.9749 88.18 82.1369 88.3572C82.2989 88.5345 82.4222 88.7436 82.4989 88.9712C82.5756 89.1988 82.6041 89.4398 82.5825 89.679V96.016C82.5485 97.965 81.6675 101.251 78.5685 101.251C78.3435 101.261 76.4375 101.371 74.2685 101.371L74.2645 101.37Z" fill="#DFEAFB"/>
</svg>
