<svg width="24" height="24" viewBox="0 0 24 24" fill="none" xmlns="http://www.w3.org/2000/svg">
<path d="M8.23438 16.763L11.975 13.0224L15.7156 16.763L16.763 15.7156L13.0224 11.975L16.763 8.23438L15.7156 7.187L11.975 10.9276L8.23438 7.187L7.187 8.23438L10.9276 11.975L7.187 15.7156L8.23438 16.763ZM11.975 21.95C10.6118 21.95 9.32331 21.6882 8.10969 21.1645C6.89606 20.6408 5.83622 19.9259 4.93016 19.0198C4.02409 18.1138 3.30922 17.0539 2.78553 15.8403C2.26184 14.6267 2 13.3383 2 11.975C2 10.5951 2.26184 9.29838 2.78553 8.08475C3.30922 6.87113 4.02409 5.81544 4.93016 4.91769C5.83622 4.01994 6.89606 3.30922 8.10969 2.78553C9.32331 2.26184 10.6118 2 11.975 2C13.3549 2 14.6516 2.26184 15.8653 2.78553C17.0789 3.30922 18.1346 4.01994 19.0323 4.91769C19.9301 5.81544 20.6408 6.87113 21.1645 8.08475C21.6882 9.29838 21.95 10.5951 21.95 11.975C21.95 13.3383 21.6882 14.6267 21.1645 15.8403C20.6408 17.0539 19.9301 18.1138 19.0323 19.0198C18.1346 19.9259 17.0789 20.6408 15.8653 21.1645C14.6516 21.6882 13.3549 21.95 11.975 21.95ZM11.975 20.4538C14.3358 20.4538 16.3391 19.6267 17.9849 17.9725C19.6308 16.3183 20.4538 14.3191 20.4538 11.975C20.4538 9.61425 19.6308 7.61094 17.9849 5.96506C16.3391 4.31919 14.3358 3.49625 11.975 3.49625C9.63088 3.49625 7.63172 4.31919 5.97753 5.96506C4.32334 7.61094 3.49625 9.61425 3.49625 11.975C3.49625 14.3191 4.32334 16.3183 5.97753 17.9725C7.63172 19.6267 9.63088 20.4538 11.975 20.4538Z" fill="white"/>
</svg>
