<?xml version="1.0" encoding="UTF-8" standalone="no"?>
<!-- Created with Inkscape (http://www.inkscape.org/) -->

<svg
   width="5.2772102mm"
   height="4.76091mm"
   viewBox="0 0 5.2772102 4.76091"
   version="1.1"
   id="svg5"
   xml:space="preserve"
   xmlns="http://www.w3.org/2000/svg"
   xmlns:svg="http://www.w3.org/2000/svg"><defs
     id="defs2" /><g
     id="layer1"
     transform="translate(61.351278,-101.65263)"><path
       style="fill:#00b8ee;fill-opacity:1;stroke-width:0.264583;stroke-miterlimit:0"
       d="m -58.712557,105.76663 c 0,0 1.442124,-1.01248 1.954133,-1.68754 0.517835,-0.68273 0.352097,-1.42624 -0.03189,-1.749 -0.957767,-0.80504 -1.735179,0.29356 -1.735179,0.29356 h -0.374119 c -0.177485,-0.58023 -0.875481,-0.84359 -1.673509,-0.24937 -0.804663,0.59915 -0.05044,1.65881 -0.05044,1.65881 z"
       id="path1648" /><g
       style="fill:#00b8ee"
       id="g1227"
       transform="matrix(0.26458333,0,0,0.26458333,-61.358392,101.64284)"><path
         d="M 10,1.595 C 8.89601,0.589002 7.48801,0.0370026 6.00401,0.0370026 c -1.578,0 -3.072,0.6230004 -4.213,1.7579974 -2.352999,2.363 -2.351999,6.059 0.002,8.412 l 7.332,7.332 c 0.17,0.299 0.498,0.492 0.87499,0.492 0.322,0 0.609,-0.163 0.792,-0.409 l 7.415,-7.415 C 20.561,7.853 20.561,4.158 18.205,1.791 17.068,0.660002 15.574,0.0370026 13.996,0.0370026 12.513,0.0370026 11.104,0.589002 10,1.595 Z m 6.791,1.61 c 1.563,1.571 1.564,4.025 0.002,5.588 L 10,15.586 3.20701,8.793 c -1.5624989,-1.5625012 -1.561,-4.017 -0.002,-5.584 0.76,-0.756 1.754,-1.172 2.799,-1.172 1.045,0 2.035,0.416 2.789,1.17 l 0.5,0.5 c 0.391,0.391 1.02299,0.391 1.41399,0 l 0.5,-0.5 c 1.512,-1.509 4.074,-1.505 5.584,-0.002 z"
         fill="#00b8ee"
         id="path1218"
         style="fill:#00b8ee;fill-opacity:1" /></g></g></svg>
