<svg width="20" height="19" viewBox="0 0 20 19" fill="none" xmlns="http://www.w3.org/2000/svg">
<path d="M10 1.595C8.89601 0.589002 7.48801 0.0370026 6.00401 0.0370026C4.42601 0.0370026 2.93201 0.660003 1.79101 1.795C-0.561989 4.158 -0.560989 7.854 1.79301 10.207L9.12501 17.539C9.29501 17.838 9.62301 18.031 10 18.031C10.322 18.031 10.609 17.868 10.792 17.622L18.207 10.207C20.561 7.853 20.561 4.158 18.205 1.791C17.068 0.660002 15.574 0.0370026 13.996 0.0370026C12.513 0.0370026 11.104 0.589002 10 1.595ZM16.791 3.205C18.354 4.776 18.355 7.23 16.793 8.793L10 15.586L3.20701 8.793C1.64501 7.23 1.64601 4.776 3.20501 3.209C3.96501 2.453 4.95901 2.037 6.00401 2.037C7.04901 2.037 8.03901 2.453 8.79301 3.207L9.29301 3.707C9.68401 4.098 10.316 4.098 10.707 3.707L11.207 3.207C12.719 1.698 15.281 1.702 16.791 3.205Z" fill="white"/>
</svg>
