<svg width="24" height="24" viewBox="0 0 24 24" fill="none" xmlns="http://www.w3.org/2000/svg">
<path d="M1.63302 20.317H2.83056L14.8877 8.25989L13.6901 7.06235L1.63302 19.1194V20.317ZM18.3442 7.08956L14.8604 3.6058L16.0035 2.46269C16.312 2.15423 16.693 2 17.1467 2C17.6003 2 17.9813 2.15423 18.2898 2.46269L19.4873 3.66023C19.7958 3.96869 19.95 4.34973 19.95 4.80334C19.95 5.25696 19.7958 5.63799 19.4873 5.94645L18.3442 7.08956ZM17.2011 8.23267L3.48377 21.95H0V18.4662L13.7173 4.74891L17.2011 8.23267ZM14.2889 7.66112L13.6901 7.06235L14.8877 8.25989L14.2889 7.66112Z" fill="white"/>
</svg>
