<svg width="25" height="26" viewBox="0 0 25 26" fill="none" xmlns="http://www.w3.org/2000/svg">
<path fill-rule="evenodd" clip-rule="evenodd" d="M24.9213 13.1836C24.9213 12.2695 24.8404 11.3906 24.6902 10.5469H12.715V15.5332H19.5579C19.2632 17.1445 18.3674 18.5098 17.0207 19.4238V22.6582H21.13C23.5343 20.4141 24.9213 17.1094 24.9213 13.1836Z" fill="#4285F4"/>
<path fill-rule="evenodd" clip-rule="evenodd" d="M12.715 25.7813C16.148 25.7813 19.0262 24.627 21.13 22.6582L17.0207 19.4238C15.8822 20.1973 14.4257 20.6543 12.715 20.6543C9.40331 20.6543 6.60024 18.3867 5.60038 15.3399H1.35242V18.6797C3.44461 22.8926 7.74459 25.7813 12.715 25.7813Z" fill="#34A853"/>
<path fill-rule="evenodd" clip-rule="evenodd" d="M5.60037 15.3399C5.34607 14.5664 5.20158 13.7403 5.20158 12.8906C5.20158 12.041 5.34607 11.2149 5.60037 10.4414V7.10158H1.35241C0.491261 8.84181 0 10.8106 0 12.8906C0 14.9707 0.491261 16.9395 1.35241 18.6797L5.60037 15.3399Z" fill="#FBBC05"/>
<path fill-rule="evenodd" clip-rule="evenodd" d="M12.715 5.12696C14.5818 5.12696 16.2578 5.77735 17.5756 7.05469L21.2225 3.35742C19.0205 1.27734 16.1423 0 12.715 0C7.74459 0 3.44461 2.88867 1.35242 7.10157L5.60038 10.4414C6.60024 7.39453 9.40331 5.12696 12.715 5.12696Z" fill="#EA4335"/>
</svg>
