<?xml version="1.0" encoding="UTF-8" standalone="no"?>
<!-- Created with Inkscape (http://www.inkscape.org/) -->

<svg
   width="4.3166113mm"
   height="3.9290972mm"
   viewBox="0 0 4.3166113 3.9290972"
   version="1.1"
   id="svg5"
   xml:space="preserve"
   xmlns="http://www.w3.org/2000/svg"
   xmlns:svg="http://www.w3.org/2000/svg"><defs
     id="defs2" /><g
     id="layer1"
     transform="translate(-85.486856,-80.145176)"><g
       style="fill:currentColor"
       id="g155"
       transform="matrix(0.00490524,0,0,0.00490524,85.290646,79.208275)"><path
         d="M 629,637 585,593 Q 611,522 558,475 505,428 443,451 l -44,-44 q 17,-11 38,-16 21,-5 43,-5 71,0 120.5,49.5 Q 650,485 650,556 q 0,22 -5.5,43.5 Q 639,621 629,637 Z M 758,766 718,726 Q 767,690 803.5,645.5 840,601 857,556 807,445 707,380.5 607,316 490,316 q -42,0 -86,8 -44,8 -69,19 L 289,296 Q 324,280 378.5,268 433,256 485,256 628,256 746.5,337.5 865,419 920,556 q -26,64 -67,117 -41,53 -95,93 z M 816,992 648,827 Q 613,841 569,848.5 525,856 480,856 334,856 215,774.5 96,693 40,556 60,504 95.5,454.5 131,405 182,360 L 56,234 98,191 855,948 Z M 223,402 Q 186,429 151.5,473 117,517 102,556 153,667 255.5,731.5 358,796 488,796 q 33,0 65,-4 32,-4 48,-12 l -64,-64 q -11,5 -27,7.5 -16,2.5 -30,2.5 -70,0 -120,-49 -50,-49 -50,-121 0,-15 2.5,-30 2.5,-15 7.5,-27 z m 305,142 z m -116,58 z"
         id="path146" /></g></g></svg>
