<svg width="20" height="19" viewBox="0 0 20 19" fill="currentColor" xmlns="http://www.w3.org/2000/svg">
<path d="M1.5 9H7.5C8.053 9 8.5 8.553 8.5 8V2C8.5 1.447 8.053 1 7.5 1H1.5C0.947 1 0.5 1.447 0.5 2V8C0.5 8.553 0.947 9 1.5 9ZM1.5 19H7.5C8.053 19 8.5 18.553 8.5 18V12C8.5 11.447 8.053 11 7.5 11H1.5C0.947 11 0.5 11.447 0.5 12V18C0.5 18.553 0.947 19 1.5 19ZM11.5 19H17.5C18.053 19 18.5 18.553 18.5 18V12C18.5 11.447 18.053 11 17.5 11H11.5C10.947 11 10.5 11.447 10.5 12V18C10.5 18.553 10.947 19 11.5 19ZM18.793 4.293L15.207 0.707C14.816 0.316 14.184 0.316 13.793 0.707L10.207 4.293C9.816 4.684 9.816 5.316 10.207 5.707L13.793 9.293C14.184 9.684 14.816 9.684 15.207 9.293L18.793 5.707C19.184 5.316 19.184 4.684 18.793 4.293Z" fill="currentColor"/>
</svg>
