<svg width="20" height="20" viewBox="0 0 20 20" fill="none" xmlns="http://www.w3.org/2000/svg">
<path d="M0.343998 13.271L2.344 16.731C2.62 17.209 3.232 17.373 3.71 17.096L5.106 16.29C5.686 16.747 6.327 17.122 7.001 17.402V19C7.001 19.552 7.448 20 8.001 20H12.001C12.554 20 13.001 19.552 13.001 19V17.402C13.675 17.122 14.315 16.747 14.896 16.29L16.292 17.096C16.769 17.371 17.383 17.206 17.658 16.731L19.658 13.271C19.933 12.795 19.768 12.18 19.293 11.905L17.921 11.112C17.973 10.743 18 10.371 18 10C18 9.629 17.973 9.257 17.919 8.888L19.291 8.095C19.767 7.82 19.932 7.205 19.656 6.729L17.656 3.269C17.38 2.791 16.768 2.627 16.29 2.904L14.894 3.71C14.314 3.253 13.674 2.877 13 2.598V1C13 0.448 12.553 0 12 0H8C7.447 0 7 0.448 7 1V2.598C6.326 2.878 5.686 3.253 5.105 3.71L3.71 2.904C3.231 2.627 2.62 2.791 2.344 3.269L0.343998 6.729C0.0689979 7.205 0.233998 7.82 0.708998 8.095L2.081 8.888C2.027 9.257 2 9.629 2 10C2 10.371 2.027 10.743 2.081 11.112L0.708998 11.905C0.232998 12.18 0.0679979 12.795 0.343998 13.271ZM10 6C12.206 6 14 7.794 14 10C14 12.206 12.206 14 10 14C7.794 14 6 12.206 6 10C6 7.794 7.794 6 10 6Z" fill="#999999"/>
</svg>
